<?xml version="1.0" encoding="UTF-8"?>
<svg id="_图层_2" data-name="图层 2" xmlns="http://www.w3.org/2000/svg" viewBox="0 0 992.13 992.13">
  <defs>
    <style>
      .cls-1 {
        fill: #c4827f;
      }

      .cls-2 {
        fill: #6b8e7b;
      }
    </style>
  </defs>
  <g id="_背景" data-name="背景">
    <g>
      <g>
        <path class="cls-1" d="M459.73,440.06c-.06-.27-.28-.47-.55-.51-5.69-1.03-55.85,13.48-85.51,12.4-33.71.92-71.23-9.63-92.24-20.1-.03-.01-.05-.03-.07-.04-7.86-4.83-6.34-13.42-9.95-19.55-.02-.03-.04-.06-.06-.09-19.49-26.11-49.69-6.2-44.55,20.71.02.09.01.17,0,.26-1.81,8.08,13.9,27.67,33.52,17.96.1-.05.21-.07.32-.07,33.24,1.08,54.57,18.92,107.54,17.62,24.05-1.51,12.41-.55,31.27-2.6.02,0,.04,0,.06,0,46.3-9.32,61.84-19.11,60.24-25.96Z"/>
        <path class="cls-1" d="M392.83,333.61c10.17,27.73,10.06,43.15-5.6,92.02,0,.02-.01.04-.02.06l-18.53,39.19c-22.42,54.37-130.11,219.23,34.62,141.47.04-.02.08-.03.13-.04,13.46-1.58,69.49-41.35,63.19-51.42-.08-.14-.23-.22-.39-.22-4.05.05-38.38,22.41-50.16,28.13-.01,0-.03.01-.04.02l-9.8,3.72c-128.27,54.26-34.42-68.11-7.47-121.68,18.12-40.96,23.86-43.14,30.09-72.91,0-.03.02-.06.03-.09,26.46-59.86-74.72-103.95-36.12-58.4.04.04.07.09.08.14Z"/>
        <path class="cls-1" d="M415.6,581.22c-6.05-35.17-13.37-24.3-10.64,1.06.3,2.78.03,7.29-.2,10.08-.43,5.06-.78,7.96-1.37,12.04-.15,1.02-.19,2.06-.18,3.09.11,17.38-20.13,94.56-45.93,111.49-3.18,2.09-6.94,2.99-10.72,3.07-14.58.33-26.36,9.98-26.7,20.12-7.86,41.32,46.8,40.32,50.2,9.01.39-3.57,1.56-7.01,3.54-9.98,37.59-56.29,45.17-114.71,43.04-136.63-.04-.46-.08-.91-.09-1.37l-.65-19.1c-.03-.96-.13-1.93-.29-2.88Z"/>
      </g>
      <path class="cls-2" d="M656.01,122.48c-86.48-143.51-303.66-106.48-338.72,56.67-7.46,26.99,2.67,55.91-5.28,82.04-14.61-11.05-11.4-34.51-12.7-51.33-2.44-31.47,5.75-60.69,16.6-89.81,102.64-229.78,439.02-99.54,373.31,137.23-1.5,7.12-8.24,4.64-9.2-1.38,6.66-49.39-.16-91.61-24-133.42Z"/>
      <path class="cls-2" d="M271.47,252C27.36,180.32-66.21,564.37,176.18,625.32c11.1,21.89-72.94-9.64-76.87-17.94-20.81-7.1-33.97-27.05-50.71-40.74-102.9-110.99-31.76-311.45,113.95-334.51,19.04-8.69,108.9-5.34,108.92,19.87Z"/>
      <path class="cls-2" d="M117.86,692.89c10.54-10.83,32-53.33,48.22-49.61-153.1,178.08,71.29,433.84,249.34,266.2,11.01-19.8,37.5-35.14,13.73-1.7-142.48,203.9-435.69-4.74-311.29-214.89Z"/>
      <path class="cls-2" d="M823.83,645.06c-2.62-2.42.79-9.13,5.49-5.95,214.85,159.28-67.87,495.74-252.71,286.33-29.46-29.78-34.97-61.29,3.89-11.86,183.51,158.39,390.36-91.28,243.33-268.52Z"/>
      <path class="cls-2" d="M991.66,438.71c.93,94.99-77.69,184.03-169.57,194.11-7.72-.87-4.66-4.63-2.42-9.36,107.4-22.93,169.4-152.18,129.24-255.16-30.92-92.55-130.83-143.16-222.27-116.9-5.37,1.2-8.88-5.26-2.6-7.45,124.59-60.05,277.6,56.58,267.62,194.76Z"/>
      <path class="cls-1" d="M558.03,604.54c-1.94-5.78-1.14-7.61,3.82-9.35,156.69-61.51,152.25,51.98,29.42,109.62-14.52,6.81-9.7,4.67.37,6.63,38.3,7.47,62.62,25.7,77.5,40.68,4.05,4.07,10.36,5.56,12.89,11.58,7.49,17.84-5.17,8.04-17.79-1.59-27.14-20.71-53.89-24.31-91.02-26.06-40.38-1.91-99.59,22.59-17.04-30.82,78.59-48.86,161.22-128.35,1.85-100.69Z"/>
      <path class="cls-1" d="M479.6,634.01c-3.96-12.1,19.92-22.85,26.04-32.95,22.38-21.61,131.83-136.68,35.84-109.95-25.65-5.05,70.32-54.3,77.51-15.71,8.24,54.29-92.41,142.52-139.39,158.61Z"/>
      <path class="cls-1" d="M636.93,319c1.85,6.71-4.57,6.08-7.04,8.69-48.01,33.6-91.18,163.94-149.5,135.4,64.28-31.75,78.22-143.13,156.53-144.09Z"/>
      <path class="cls-1" d="M484.01,265.1c-20.02-9.64-10.34-46.22,10.86-47.87,24.81-1.74,40.52,33.18,17.05,47.6-6.29,4.01-1.42,24.14-3.05,32.13-4.27,14.53-3.23,29.82-4.06,44.9-1.96,9.95-.42,64.82-7.71,64.93-11.89-42.54-3.39-95.73-13.08-141.69Z"/>
      <path class="cls-1" d="M764.64,432.06c-20.85,26.76-25.17,4.65-45.87,21.53-24.69,12.04-44.97,34.11-73.21,34.99,5.11-15.26,75.21-43.49,69.62-64.31-2.81-44.33,62.31-37.32,49.46,7.79Z"/>
    </g>
  </g>
</svg>