<?xml version="1.0" encoding="UTF-8"?>
<svg id="_图层_2" data-name="图层 2" xmlns="http://www.w3.org/2000/svg" viewBox="0 0 1133.86 1133.86">
  <defs>
    <style>
      .cls-1 {
        fill: #f8f7f3;
      }

      .cls-2 {
        fill: #c4827f;
      }

      .cls-3 {
        fill: #6b8e7b;
      }
    </style>
  </defs>
  <g id="_背景" data-name="背景">
    <rect class="cls-1" width="1133.86" height="1133.86" rx="141.73" ry="141.73"/>
    <g>
      <g>
        <path class="cls-3" d="M726.87,193.34c-86.48-143.51-303.66-106.48-338.72,56.67-7.46,26.99,2.67,55.91-5.28,82.04-14.61-11.05-11.4-34.51-12.7-51.33-2.44-31.47,5.75-60.69,16.6-89.81,102.64-229.78,439.02-99.54,373.31,137.23-1.5,7.12-8.24,4.64-9.2-1.38,6.66-49.39-.16-91.61-24-133.42Z"/>
        <path class="cls-3" d="M342.33,322.86C98.23,251.19,4.66,635.24,247.04,696.19c11.1,21.89-72.94-9.64-76.87-17.94-20.81-7.1-33.97-27.05-50.71-40.74-102.9-110.99-31.76-311.45,113.95-334.51,19.04-8.69,108.9-5.34,108.92,19.87Z"/>
        <path class="cls-3" d="M188.72,763.76c10.54-10.83,32-53.33,48.22-49.61-153.1,178.08,71.29,433.84,249.34,266.2,11.01-19.8,37.5-35.14,13.73-1.7-142.48,203.9-435.69-4.74-311.29-214.89Z"/>
        <path class="cls-3" d="M894.69,715.93c-2.62-2.42.79-9.13,5.49-5.95,214.85,159.28-67.87,495.74-252.71,286.33-29.46-29.78-34.97-61.29,3.89-11.86,183.51,158.39,390.36-91.28,243.33-268.52Z"/>
        <path class="cls-3" d="M1062.53,509.58c.93,94.99-77.69,184.03-169.57,194.11-7.72-.87-4.66-4.63-2.42-9.36,107.4-22.93,169.4-152.18,129.24-255.16-30.92-92.55-130.83-143.16-222.27-116.9-5.37,1.2-8.88-5.26-2.6-7.45,124.59-60.05,277.6,56.58,267.62,194.76Z"/>
      </g>
      <path class="cls-2" d="M417.83,842.03c-22.01,0-49.33-29.23-49.33-52.86v-230.6h396.85v227.23c.51,24.18-28.85,56.24-51.45,56.24h-296.08,0ZM680.31,416.83v56.69h-56.69l-.11-56.69h-113.28v56.69h-56.69v-56.69h-38.12c-41.64,0-75.26,40.08-75.26,89.57v274.39c0,49.53,33.62,89.57,75.26,89.57h302.99c41.67,0,75.29-40.03,75.29-89.57v-274.39c0-48.87-33.65-89.57-75.29-89.57h-38.1ZM425.2,785.34h56.69v-56.69h-56.69v56.69ZM425.2,671.95h56.69v-56.69h-56.69v56.69ZM538.58,671.95h56.69v-56.69h-56.69v56.69ZM651.97,671.95h56.69v-56.69h-56.69v56.69ZM651.97,785.34h56.69v-56.69h-56.69v56.69ZM538.58,785.34h56.69v-56.69h-56.69v56.69Z"/>
    </g>
  </g>
</svg>