<?xml version="1.0" encoding="UTF-8"?>
<svg id="_图层_2" data-name="图层 2" xmlns="http://www.w3.org/2000/svg" viewBox="0 0 1133.86 1133.86">
  <defs>
    <style>
      .cls-1 {
        fill: #d99c99;
      }

      .cls-2 {
        fill: #f8f7f3;
      }

      .cls-3 {
        fill: #6b8e7b;
      }
    </style>
  </defs>
  <g id="_背景" data-name="背景">
    <rect class="cls-2" width="1133.86" height="1133.86" rx="141.73" ry="141.73"/>
    <g>
      <g>
        <path class="cls-3" d="M726.87,193.23c-86.48-143.51-303.66-106.48-338.72,56.67-7.46,26.99,2.67,55.91-5.28,82.04-14.61-11.05-11.4-34.51-12.7-51.33-2.44-31.47,5.75-60.69,16.6-89.81,102.64-229.78,439.02-99.54,373.31,137.23-1.5,7.12-8.24,4.64-9.2-1.38,6.66-49.39-.16-91.61-24-133.42Z"/>
        <path class="cls-3" d="M342.33,322.75C98.23,251.08,4.66,635.13,247.04,696.07c11.1,21.89-72.94-9.64-76.87-17.94-20.81-7.1-33.97-27.05-50.71-40.74-102.9-110.99-31.76-311.45,113.95-334.51,19.04-8.69,108.9-5.34,108.92,19.87Z"/>
        <path class="cls-3" d="M188.72,763.64c10.54-10.83,32-53.33,48.22-49.61-153.1,178.08,71.29,433.84,249.34,266.2,11.01-19.8,37.5-35.14,13.73-1.7-142.48,203.9-435.69-4.74-311.29-214.89Z"/>
        <path class="cls-3" d="M894.69,715.82c-2.62-2.42.79-9.13,5.49-5.95,214.85,159.28-67.87,495.74-252.71,286.33-29.46-29.78-34.97-61.29,3.89-11.86,183.51,158.39,390.36-91.28,243.33-268.52Z"/>
        <path class="cls-3" d="M1062.53,509.46c.93,94.99-77.69,184.03-169.57,194.11-7.72-.87-4.66-4.63-2.42-9.36,107.4-22.93,169.4-152.18,129.24-255.16-30.92-92.55-130.83-143.16-222.27-116.9-5.37,1.2-8.88-5.26-2.6-7.45,124.59-60.05,277.6,56.58,267.62,194.76Z"/>
      </g>
      <path class="cls-1" d="M741.96,699.25c-85.21,80.06-209.02,112.9-322.79,86.12-9.74-14.13-17.37-29.6-22.65-45.93,86.02-79.88,200.19-129.87,325.82-133.14,15.4,36.67,23.1,62.34,19.62,92.98v-.02ZM428.46,563.11c57.92-56.7,133.44-91.94,214.1-99.91,22.5,35.65,46.23,74.61,64.96,111.62-117.57,5.84-229.78,50.93-318.69,128.07-4.95-45.43,12.48-86.26,39.63-139.78ZM729.19,751.28c-38.48,105.87-185.55,147.24-273.84,72.73,97.58,11.81,199.16-16.97,273.84-72.73ZM557.4,349.03c2.53-6.03,12.8-5.99,15.5-.02,8.1,17.94,27.55,48.24,50.56,84.21-53.98,7.56-105.75,26.45-151.91,55.44,37-59.56,74.62-113.1,85.86-139.63Z"/>
      <path class="cls-1" d="M566.93,872.04c-293.01-26.38-185.68-438.2,0-538.58,185.78,101.19,293.17,511.55,0,538.58h0ZM566.93,345.32c-176.35,105.94-275.87,486,0,516.17,275.84-30.02,176.39-410.06,0-516.17Z"/>
      <path class="cls-2" d="M495.54,502.9c-6.56,4.76-19.97,22.54-23.23,32.84-2.7,10.74-9.8,32.05-15.58,38.35h-1.66c-4.77-6.99-7.31-29.43,1.08-39.69,7.4-13.55,25.56-30.35,38.72-33.28,0,0,.68,1.78.68,1.78ZM705.15,623.99c3.29,58.86-31.96,170.21-113.28,153.71l-.13-1.95c26.66-12.61,57.51-28.5,76.27-53.33,18.7-20.84,34.89-78.3,35.47-98.49l1.67.05Z"/>
    </g>
  </g>
</svg>