<?xml version="1.0" encoding="UTF-8"?>
<svg id="_图层_2" data-name="图层 2" xmlns="http://www.w3.org/2000/svg" viewBox="0 0 300.58 425.78">
  <defs>
    <style>
      .cls-1 {
        fill: #b1c9ba;
      }

      .cls-2 {
        fill: #b1c8ba;
      }

      .cls-3 {
        fill: #f1c9c7;
      }
    </style>
  </defs>
  <g id="_图层_1-2" data-name="图层 1">
    <g>
      <path class="cls-2" d="M48.85,212.09c1.76,2.61,3.9,9.32,5.72,12.66,24.43,44.86,55.84,86.25,95.53,118.59-2.16,1.79-3.52,2.43-5.25,3.75-43.81-36.22-77.51-82.97-103.2-133.48-.97-3.03,1.49-2.91,1.95-3.77,1.16-1.7,4.58,1.25,5.25,2.25Z"/>
      <path class="cls-2" d="M156.1,77.84c32.17,27.68,60.17,60.27,82.36,96.52,7.18,11.72,12.8,23.25,18.89,35.48-1.65-.47-4.36.98-5.25,2.25-9.99-19.18-20.71-38.01-33.14-55.74-19.47-27.76-42.5-52.6-68.11-74.76,1.89-1.56,3.75-2.55,5.25-3.75Z"/>
      <path class="cls-1" d="M150.85,352.34c.61-.5,2.79-3.06,4.5-4.5,42.46,33.63,91.96,57.45,144.02,72.36,1.75,3.68,1.24,6.13-3.2,5.48-5.87-.85-17.31-5.25-23.45-7.33-44.02-14.89-85.45-37.3-121.86-66.01Z"/>
      <path class="cls-3" d="M257.35,209.84c.41.83,2.64,1.31,1.95,3.77-26.12,51.14-59.86,97.21-103.95,134.23-1.71,1.44-3.89,4-4.5,4.5-35.81,29.1-81.04,52.25-124.86,66.76-5.46,1.81-16.1,5.86-21.21,6.59s-6.54-3.77-2.2-6c50.87-14.6,99.54-37.61,141.18-70.35.96-.76.99-2.18,1.09-2.25,1.73-1.32,3.09-1.96,5.25-3.75,40.3-33.43,69.48-70.24,94.89-116.23,2.24-4.05,4.91-11.88,7.11-15.02.89-1.27,3.6-2.72,5.25-2.25Z"/>
      <path class="cls-3" d="M156.1,77.84c-1.5,1.2-3.36,2.19-5.25,3.75-43.26,35.66-76.87,80.47-102,130.5-.67-1-4.09-3.95-5.25-2.25,28.36-52.49,54.89-92.88,101.25-132,1.59-1.34,3.95-3.45,5.25-4.5,31.76-25.54,69.55-46.28,107.61-60.76,10.4-3.96,26.55-10.44,37.1-12.4,6.28-1.17,7.1,3.66,4.04,5.54s-13.72,3.95-17.89,5.36c-47.26,15.96-85.9,35.74-124.86,66.76Z"/>
      <path class="cls-2" d="M150.1,73.34c-1.3,1.05-3.66,3.16-5.25,4.5C109.6,48.35,67.37,27.23,23.93,12.39c-5.63-1.92-17.38-4.17-21.78-6.72C1.06,5.04.2,4.6.07,3.18-.36-1.41,5.12.13,7.76.81c8.29,2.12,18.5,5.69,26.68,8.56,41.77,14.67,81.16,36.33,115.66,63.97Z"/>
    </g>
  </g>
</svg>